<?xml version="1.0" standalone="no"?>
<!DOCTYPE svg PUBLIC "-//W3C//DTD SVG 1.1//EN" "http://www.w3.org/Graphics/SVG/1.1/DTD/svg11.dtd" >
<svg>
<metadata>
Created by FontForge 20090622 at Tue Jul 12 08:11:07 2016
 By deploy user
Copyright 1993 DoubleAlex Team. All rights reserved.
</metadata>
<defs>
<font id="FavoritC" horiz-adv-x="578" >
  <font-face 
    font-family="FavoritC"
    font-weight="400"
    font-stretch="normal"
    units-per-em="1000"
    panose-1="0 0 5 0 0 0 0 0 0 0"
    ascent="732"
    descent="-268"
    x-height="468"
    cap-height="754"
    bbox="-50 -268 1089 1020"
    underline-thickness="50"
    underline-position="-50"
    unicode-range="U+0020-U+2265"
  />
<missing-glyph horiz-adv-x="1000" 
 />
    <glyph glyph-name=".notdef" horiz-adv-x="1000" 
 />
    <glyph glyph-name=".null" horiz-adv-x="0" 
 />
    <glyph glyph-name="nonmarkingreturn" horiz-adv-x="333" 
 />
    <glyph glyph-name="space" unicode=" " horiz-adv-x="289" 
 />
    <glyph glyph-name="space" unicode="&#xa0;" horiz-adv-x="289" 
 />
    <glyph glyph-name="exclam" unicode="!" horiz-adv-x="321" 
d="M161 100q24 0 41 -17.5t17 -40.5q0 -24 -17 -41t-41 -17t-41 17t-17 41q0 23 17 40.5t41 17.5zM116 174v580h90v-580h-90z" />
    <glyph glyph-name="quotedbl" unicode="&#x22;" horiz-adv-x="439" 
d="M90 754h98l-18 -328h-62zM251 754h98l-18 -328h-62z" />
    <glyph glyph-name="numbersign" unicode="#" 
d="M217 718h77l-36 -194h124l35 194h79l-35 -194h92v-80h-107l-27 -154h101v-80h-117l-38 -210h-76l37 210h-123l-40 -210h-75l37 210h-100v80h115l27 154h-105v80h119zM245 444l-27 -154h123l27 154h-123z" />
    <glyph glyph-name="dollar" unicode="$" 
d="M333 349v-271q46 10 75.5 49t29.5 87q0 80 -105 135zM283 770v90h50v-90q114 -11 171 -116l-79 -45q-29 55 -92 74v-235q90 -39 142.5 -92.5t52.5 -137.5q0 -82 -57.5 -152.5t-137.5 -81.5v-95h-50v95q-87 1 -153 62t-80 148l90 19q13 -66 46 -99.5t97 -41.5v300l-36 18
q-70 36 -107 76t-37 107q0 75 52.5 133t127.5 64zM283 472v211q-40 -6 -66.5 -35t-26.5 -68q0 -71 93 -108z" />
    <glyph glyph-name="percent" unicode="%" horiz-adv-x="708" 
d="M193 770q72 0 124 -50.5t52 -121.5t-52.5 -121t-123.5 -50t-123.5 50t-52.5 121t52 121.5t124 50.5zM193 710q-47 0 -81.5 -33t-34.5 -79q0 -45 34.5 -78t81.5 -33t81.5 33t34.5 78q0 46 -34.5 79t-81.5 33zM552 770l45 -26l-440 -760l-46 25zM516 327q72 0 124 -50.5
t52 -121.5t-52.5 -121t-123.5 -50t-123.5 50t-52.5 121t52 121.5t124 50.5zM516 267q-47 0 -81.5 -33t-34.5 -79q0 -45 34.5 -78t81.5 -33t81.5 33t34.5 78q0 46 -34.5 79t-81.5 33z" />
    <glyph glyph-name="ampersand" unicode="&#x26;" horiz-adv-x="692" 
d="M287 372l-9 -6q-33 -22 -46 -31.5t-40 -32.5t-39 -46.5t-12 -48.5q0 -54 43 -96.5t97 -42.5q33 0 67 17t55 35t51 48zM307 490l12 8q28 19 43 31t31 36t16 49q0 39 -24.5 60.5t-63.5 21.5q-35 0 -59.5 -22.5t-24.5 -57.5q0 -18 8 -36.5t14.5 -28t22.5 -29.5zM592 0
l-82 102q-100 -118 -226 -118q-96 0 -163.5 63t-67.5 159q0 65 33.5 109t98.5 91l47 34q-83 87 -83 165q0 76 49 120.5t125 44.5q72 0 123 -42.5t51 -114.5q0 -30 -11.5 -57.5t-34.5 -52t-42 -40.5t-49 -38l157 -190l88 102l60 -62l-92 -108l135 -167h-116z" />
    <glyph glyph-name="quotesingle" unicode="'" horiz-adv-x="277" 
d="M90 754h98l-18 -328h-62z" />
    <glyph glyph-name="parenleft" unicode="(" horiz-adv-x="292" 
d="M161 809l74 -55q-86 -180 -86 -446t86 -446l-74 -55q-52 103 -78 236.5t-26 264.5t26 265t78 236z" />
    <glyph glyph-name="parenright" unicode=")" horiz-adv-x="292" 
d="M57 754l74 55q52 -102 78 -236t26 -265t-26 -264.5t-78 -236.5l-74 55q86 180 86 446t-86 446z" />
    <glyph glyph-name="asterisk" unicode="*" horiz-adv-x="432" 
d="M184 754h69v-95l81 48l35 -59l-85 -50l85 -50l-35 -58l-81 50v-96h-69v97l-87 -49l-34 57l85 49l-84 50l31 57l89 -49v98z" />
    <glyph glyph-name="plus" unicode="+" 
d="M246 512h86v-213h213v-86h-213v-213h-86v213h-213v86h213v213z" />
    <glyph glyph-name="comma" unicode="," horiz-adv-x="289" 
d="M164 119l78 -31l-133 -267l-55 23z" />
    <glyph glyph-name="hyphen" unicode="-" horiz-adv-x="332" 
d="M37 308h259v-75h-259v75z" />
    <glyph glyph-name="hyphen" unicode="&#xad;" horiz-adv-x="332" 
d="M37 308h259v-75h-259v75z" />
    <glyph glyph-name="period" unicode="." horiz-adv-x="289" 
d="M145 100q24 0 41 -17.5t17 -40.5q0 -24 -17 -41t-41 -17t-41 17t-17 41q0 23 17 40.5t41 17.5z" />
    <glyph glyph-name="slash" unicode="/" horiz-adv-x="551" 
d="M448 868l72 -32l-417 -962l-71 32z" />
    <glyph glyph-name="zero" unicode="0" 
d="M289 -16q-56 0 -101.5 26.5t-75 67.5t-49.5 94t-28.5 104.5t-8.5 100.5q0 63 14.5 127.5t43.5 126t82.5 100.5t122.5 39t122.5 -39t82.5 -100.5t43.5 -126t14.5 -127.5q0 -49 -8.5 -100.5t-28.5 -104.5t-49.5 -94t-75 -67.5t-101.5 -26.5zM289 690q-48 0 -83.5 -33.5
t-54 -84.5t-27 -100.5t-8.5 -93.5t8.5 -93t27 -100t54 -84t83.5 -33t83.5 33t54 84t27 100t8.5 93t-8.5 93.5t-27 100.5t-54 84.5t-83.5 33.5z" />
    <glyph glyph-name="one" unicode="1" 
d="M254 668h-131l52 86h169v-754h-90v668z" />
    <glyph glyph-name="two" unicode="2" 
d="M228 86h304v-86h-487l330 405q67 82 67 135q0 59 -44.5 101.5t-103.5 42.5q-57 0 -99 -40.5t-46 -97.5h-94q11 102 74.5 163t164.5 61q98 0 168 -64.5t70 -161.5q0 -86 -56 -155z" />
    <glyph glyph-name="three" unicode="3" 
d="M275 360v78q148 0 148 121q0 57 -37 93t-94 36q-51 0 -84 -29.5t-41 -78.5h-93q13 93 70.5 141.5t150.5 48.5t155.5 -55.5t62.5 -147.5q0 -116 -96 -170q107 -51 107 -187q0 -103 -68.5 -164.5t-172.5 -61.5q-92 0 -159 56t-71 146h91q7 -54 48.5 -87t97.5 -33
q62 0 103 43t41 105q0 71 -44.5 111t-114.5 35z" />
    <glyph glyph-name="four" unicode="4" 
d="M469 192h86v-82h-86v-110h-90v110h-372l462 676v-594zM379 192v311h-2l-212 -311h214z" />
    <glyph glyph-name="five" unicode="5" 
d="M528 668h-237l-47 -155l53 3q105 6 173.5 -74.5t68.5 -189.5q0 -118 -80.5 -193t-198.5 -75q-71 0 -134.5 35.5t-95.5 96.5l70 66q17 -47 66.5 -79.5t100.5 -32.5q76 0 129 54.5t53 130.5q0 73 -53.5 126t-126.5 53q-40 0 -78.5 -18t-62.5 -49h-18l116 387h302v-86z" />
    <glyph glyph-name="six" unicode="6" 
d="M379 770l68 -46l-201 -272l2 -2q36 18 74 18q91 0 154.5 -71.5t63.5 -164.5q0 -103 -73 -175.5t-176 -72.5q-99 0 -175 71.5t-76 169.5q0 89 82 199zM290 68q64 0 112 46t48 108q0 68 -49 115t-111 47t-111 -48t-49 -109q0 -65 47.5 -112t112.5 -47z" />
    <glyph glyph-name="seven" unicode="7" 
d="M437 668h-390v86h543l-470 -770l-73 45z" />
    <glyph glyph-name="eight" unicode="8" 
d="M289 352q-58 0 -102 -41.5t-44 -100.5q0 -56 45 -99t101 -43t101 43t45 99q0 59 -44 100.5t-102 41.5zM53 210q0 63 31 112t88 69q-99 56 -99 169q0 91 62.5 150.5t153.5 59.5t153.5 -59.5t62.5 -150.5q0 -113 -99 -169q57 -20 88 -69t31 -112q0 -102 -68.5 -164
t-167.5 -62t-167.5 62t-68.5 164zM289 690q-51 0 -89.5 -38t-38.5 -92q0 -45 40.5 -86.5t87.5 -41.5t87.5 41.5t40.5 86.5q0 54 -38.5 92t-89.5 38z" />
    <glyph glyph-name="nine" unicode="9" 
d="M213 -16l-68 47l201 271l-2 2q-28 -14 -73 -14q-92 0 -155.5 70t-63.5 162q0 103 73 175.5t176 72.5q99 0 175 -71.5t76 -169.5q0 -89 -82 -199zM302 370q70 0 115 47t45 111q0 61 -46.5 109.5t-107.5 48.5q-68 0 -117 -47t-49 -111q0 -65 49.5 -111.5t110.5 -46.5z" />
    <glyph glyph-name="colon" unicode=":" horiz-adv-x="289" 
d="M145 100q24 0 41 -17.5t17 -40.5q0 -24 -17 -41t-41 -17t-41 17t-17 41q0 23 17 40.5t41 17.5zM145 482q24 0 41 -17.5t17 -40.5q0 -24 -17 -41t-41 -17t-41 17t-17 41q0 23 17 40.5t41 17.5z" />
    <glyph glyph-name="semicolon" unicode=";" horiz-adv-x="289" 
d="M156 119l78 -31l-133 -267l-55 23zM192 482q24 0 41 -17.5t17 -40.5q0 -24 -17 -41t-41 -17t-41 17t-17 41q0 23 17 40.5t41 17.5z" />
    <glyph glyph-name="less" unicode="&#x3c;" 
d="M545 498v-94l-384 -148l384 -148v-94l-512 207v70z" />
    <glyph glyph-name="equal" unicode="=" 
d="M33 385h512v-86h-512v86zM33 213h512v-86h-512v86z" />
    <glyph glyph-name="greater" unicode="&#x3e;" 
d="M33 404v94l512 -207v-70l-512 -207v94l384 148z" />
    <glyph glyph-name="question" unicode="?" horiz-adv-x="453" 
d="M300 345h91q3 -64 -47 -112.5t-115 -48.5q-67 0 -114 46.5t-47 113.5q0 64 33 94.5t93 52.5q5 2 20 7.5t21 7.5t19 7.5t18 9l15 10t14 12.5l9 14t7 17t2 20q0 41 -26 65t-66 24q-35 0 -60.5 -25.5t-25.5 -60.5q0 -10 6 -32h-94l-2 33q-4 71 51 120.5t128 49.5
q76 0 128 -51t52 -126q0 -78 -54 -124q-31 -27 -124 -56q-73 -22 -73 -73q0 -30 20 -51t50 -21q32 0 52 22.5t19 54.5zM229 100q24 0 41 -17.5t17 -40.5q0 -24 -17 -41t-41 -17t-41 17t-17 41q0 23 17 40.5t41 17.5z" />
    <glyph glyph-name="at" unicode="@" horiz-adv-x="800" 
d="M503 372q7 60 -21 93.5t-81 33.5q-58 0 -95 -47t-37 -106q0 -46 27.5 -80t72.5 -34q62 0 94 39.5t40 100.5zM528 506l14 62h71l-50 -257q-9 -25 -8.5 -55.5t22.5 -30.5q36 0 72 60t36 132q0 124 -76.5 198.5t-193.5 74.5q-126 0 -212.5 -91.5t-86.5 -221.5
q0 -135 92.5 -224t223.5 -89q129 0 186 48l75 -60q-64 -34 -122 -51t-147 -17q-163 0 -275.5 112t-112.5 281q0 167 110.5 280t271.5 113q136 0 235 -87q112 -100 112 -230q0 -131 -62 -212q-34 -45 -75 -67t-79 -20q-44 2 -54 62q-62 -62 -136 -62q-67 0 -117.5 54.5
t-50.5 130.5q0 95 57 166.5t147 71.5q78 0 133 -71z" />
    <glyph glyph-name="A" unicode="A" horiz-adv-x="703" 
d="M525 189h-346l-86 -189h-101l360 786l360 -786h-101zM486 275l-134 305l-134 -305h268z" />
    <glyph glyph-name="B" unicode="B" horiz-adv-x="535" 
d="M158 670v-250h24q78 0 120 26t42 100q0 73 -41.5 98.5t-118.5 25.5h-26zM158 345v-261h72q178 0 178 133q0 38 -17.5 64.5t-47.5 39.5t-61 18.5t-66 5.5h-58zM64 0v754h92q58 0 104 -9t86.5 -30.5t63 -64t22.5 -103.5q0 -43 -22 -84.5t-59 -58.5v-2q65 -12 108 -67.5
t43 -123.5q0 -106 -76 -158.5t-186 -52.5h-176z" />
    <glyph glyph-name="C" unicode="C" horiz-adv-x="661" 
d="M621 719v-109q-83 74 -199 74q-125 0 -211.5 -90.5t-86.5 -217.5q0 -125 85.5 -215.5t210.5 -90.5q114 0 201 78v-111q-90 -53 -198 -53q-162 0 -277.5 113t-115.5 276q0 167 117 282t284 115q107 0 190 -51z" />
    <glyph glyph-name="D" unicode="D" horiz-adv-x="665" 
d="M64 0v754h156q183 0 303 -96.5t120 -276.5q0 -185 -119 -283t-307 -98h-153zM158 668v-582h33q76 0 138 15t112.5 48t79 91t28.5 137q0 80 -28.5 138t-79.5 90.5t-112.5 47.5t-137.5 15h-33z" />
    <glyph glyph-name="E" unicode="E" horiz-adv-x="521" 
d="M72 0v754h405v-86h-311v-211h302v-86h-302v-285h311v-86h-405z" />
    <glyph glyph-name="F" unicode="F" horiz-adv-x="474" 
d="M436 668h-271v-212h262v-86h-262v-370h-94v754h365v-86z" />
    <glyph glyph-name="G" unicode="G" horiz-adv-x="780" 
d="M460 380h299v-30q0 -157 -100 -261.5t-257 -104.5t-269 116.5t-112 274.5q0 163 114.5 279t276.5 116q89 0 170.5 -38.5t136.5 -107.5l-66 -63q-41 56 -105 89.5t-132 33.5q-126 0 -213.5 -89.5t-87.5 -216.5q0 -121 86.5 -214.5t206.5 -93.5q90 0 167 67t80 157h-195v86
z" />
    <glyph glyph-name="H" unicode="H" horiz-adv-x="675" 
d="M158 450h359v304h94v-754h-94v362h-359v-362h-94v754h94v-304z" />
    <glyph glyph-name="I" unicode="I" horiz-adv-x="232" 
d="M163 754v-754h-94v754h94z" />
    <glyph glyph-name="J" unicode="J" horiz-adv-x="362" 
d="M209 754h94v-479q0 -61 -7.5 -107.5t-28 -91t-63 -68.5t-105.5 -24t-118 33l47 80q33 -25 75 -25q22 0 39.5 8t28.5 18t19 30t11.5 34t5.5 40t2 37v36v479z" />
    <glyph glyph-name="K" unicode="K" horiz-adv-x="600" 
d="M166 427l320 327h123l-339 -339l345 -415h-127l-284 351l-38 -36v-315h-94v754h94v-327z" />
    <glyph glyph-name="L" unicode="L" horiz-adv-x="385" 
d="M166 754v-668h229v-86h-323v754h94z" />
    <glyph glyph-name="M" unicode="M" horiz-adv-x="851" 
d="M426 -16l-226 514h-2l-88 -498h-97l154 786l259 -594l259 594l154 -786h-97l-88 498h-2z" />
    <glyph glyph-name="N" unicode="N" horiz-adv-x="785" 
d="M63 0v790l566 -593v557h94v-785l-566 593v-562h-94z" />
    <glyph glyph-name="O" unicode="O" horiz-adv-x="828" 
d="M414 770q162 0 278.5 -115.5t116.5 -277.5q0 -167 -115 -280t-280 -113t-280 113t-115 280q0 162 116.5 277.5t278.5 115.5zM414 72q123 0 212 88.5t89 216.5q0 127 -85.5 216t-215.5 89t-215.5 -89t-85.5 -216q0 -128 89 -216.5t212 -88.5z" />
    <glyph glyph-name="P" unicode="P" horiz-adv-x="495" 
d="M166 316v-316h-94v754h108q167 0 235.5 -54.5t68.5 -163.5q0 -112 -73.5 -166t-190.5 -54h-54zM166 670v-270h30q41 0 72.5 5t62.5 18.5t48 42.5t17 72q0 42 -18 70t-51 40.5t-64 17t-72 4.5h-25z" />
    <glyph glyph-name="Q" unicode="Q" horiz-adv-x="828" 
d="M808 -16h-114l-65 67q-97 -67 -215 -67q-165 0 -280 113t-115 280q0 162 116.5 277.5t278.5 115.5t278.5 -115.5t116.5 -277.5q0 -80 -31 -152.5t-87 -125.5zM508 284l119 -118q42 37 65 95.5t23 115.5q0 127 -85.5 216t-215.5 89t-215.5 -89t-85.5 -216
q0 -128 89 -216.5t212 -88.5q82 0 150 43l-173 169h117z" />
    <glyph glyph-name="R" unicode="R" horiz-adv-x="543" 
d="M303 328l238 -328h-114l-222 319h-39v-319h-94v754h114q43 0 69.5 -1.5t64 -9.5t65.5 -24q46 -27 72.5 -76t26.5 -104q0 -82 -50 -141.5t-131 -69.5zM166 670v-273h30q41 0 72.5 5t62.5 18.5t48 42.5t17 72q0 135 -205 135h-25z" />
    <glyph glyph-name="S" unicode="S" horiz-adv-x="537" 
d="M482 656l-75 -45q-42 71 -121 71q-48 0 -87 -30t-39 -77q0 -68 105 -108l54 -21q90 -35 138.5 -87t48.5 -140q0 -102 -69.5 -168.5t-171.5 -66.5q-91 0 -156 59.5t-77 151.5l95 20q-1 -61 41.5 -102t104.5 -41q60 0 99.5 43.5t39.5 103.5q0 55 -34.5 86.5t-95.5 56.5
l-52 22q-76 32 -120 75.5t-44 115.5q0 88 66 141.5t156 53.5q130 0 194 -114z" />
    <glyph glyph-name="T" unicode="T" horiz-adv-x="456" 
d="M275 668v-668h-94v668h-179v86h452v-86h-179z" />
    <glyph glyph-name="U" unicode="U" horiz-adv-x="669" 
d="M59 754h94v-445q0 -237 182 -237t182 237v445h94v-477q0 -128 -74.5 -210.5t-201.5 -82.5t-201.5 82.5t-74.5 210.5v477z" />
    <glyph glyph-name="V" unicode="V" horiz-adv-x="640" 
d="M96 754l225 -558l224 558h103l-327 -794l-328 794h103z" />
    <glyph glyph-name="W" unicode="W" horiz-adv-x="1027" 
d="M90 754l211 -540l213 556l213 -556l211 540h102l-313 -784l-213 553l-213 -553l-313 784h102z" />
    <glyph glyph-name="X" unicode="X" horiz-adv-x="574" 
d="M237 395l-208 359h107l154 -275l164 275h107l-217 -359l229 -395h-105l-178 309l-185 -309h-105z" />
    <glyph glyph-name="Y" unicode="Y" horiz-adv-x="573" 
d="M240 328l-246 426h108l185 -322l185 322h108l-246 -426v-328h-94v328z" />
    <glyph glyph-name="Z" unicode="Z" horiz-adv-x="552" 
d="M162 86h382v-86h-535l382 668h-328v86h481z" />
    <glyph glyph-name="bracketleft" unicode="[" horiz-adv-x="311" 
d="M153 725v-834h98v-84h-190v1002h190v-84h-98z" />
    <glyph glyph-name="backslash" unicode="\" horiz-adv-x="551" 
d="M31 868h84l404 -868h-84zM435 0h84h-84z" />
    <glyph glyph-name="bracketright" unicode="]" horiz-adv-x="311" 
d="M158 -109v834h-98v84h190v-1002h-190v84h98z" />
    <glyph glyph-name="asciicircum" unicode="^" 
d="M33 308l200 446h112l200 -446h-94l-162 362l-163 -362h-93z" />
    <glyph glyph-name="underscore" unicode="_" horiz-adv-x="500" 
d="M500 -113v-75h-500v75h500z" />
    <glyph glyph-name="grave" unicode="`" horiz-adv-x="360" 
d="M76 690l83 44l125 -166l-44 -27z" />
    <glyph glyph-name="a" unicode="a" horiz-adv-x="556" 
d="M264 64q71 0 111.5 49t40.5 121q0 71 -41 119.5t-111 48.5q-67 0 -107.5 -49.5t-40.5 -118.5q0 -70 40 -120t108 -50zM501 468v-468h-90v73h-2q-60 -89 -159 -89q-103 0 -163.5 73.5t-60.5 179.5q0 100 61 172.5t160 72.5q101 0 162 -92h2v78h90z" />
    <glyph glyph-name="b" unicode="b" horiz-adv-x="556" 
d="M288 64q71 0 111.5 49t40.5 121q0 71 -41 119.5t-111 48.5q-67 0 -107.5 -49.5t-40.5 -118.5q0 -70 40 -120t108 -50zM55 0v868h90v-478h2q61 92 163 92q98 0 159 -72.5t61 -172.5q0 -106 -60 -179.5t-164 -73.5q-48 0 -89.5 24t-69.5 65h-2v-73h-90z" />
    <glyph glyph-name="c" unicode="c" horiz-adv-x="441" 
d="M406 451v-116q-55 63 -134 63q-65 0 -110.5 -49t-45.5 -115q0 -72 45.5 -119t116.5 -47q73 0 128 62v-115q-58 -31 -129 -31q-104 0 -177.5 71t-73.5 175q0 108 73.5 180t182.5 72q71 0 124 -31z" />
    <glyph glyph-name="d" unicode="d" horiz-adv-x="556" 
d="M264 64q71 0 111.5 49t40.5 121q0 71 -41 119.5t-111 48.5q-67 0 -107.5 -49.5t-40.5 -118.5q0 -70 40 -120t108 -50zM411 0v73h-2q-28 -41 -69.5 -65t-89.5 -24q-104 0 -164 73.5t-60 179.5q0 100 61 172.5t159 72.5q102 0 163 -92h2v478h90v-868h-90z" />
    <glyph glyph-name="e" unicode="e" horiz-adv-x="488" 
d="M473 219h-357q1 -63 40 -109t101 -46q49 0 80.5 22.5t59.5 68.5l76 -43q-33 -60 -90.5 -94t-126.5 -34q-105 0 -167.5 70t-62.5 176q0 112 59 182t169 70q107 0 163 -69.5t56 -179.5v-14zM121 287h262q-8 54 -42 85.5t-87 31.5q-52 0 -88.5 -33t-44.5 -84z" />
    <glyph glyph-name="f" unicode="f" horiz-adv-x="275" 
d="M294 868v-91q-43 19 -60 19q-18 0 -31 -9.5t-19 -21.5t-9.5 -32.5t-4 -32t-0.5 -31.5v-201h124v-84h-124v-384h-90v384h-41v84h41v228q0 184 151 184q33 0 63 -12z" />
    <glyph glyph-name="g" unicode="g" horiz-adv-x="555" 
d="M263 64q71 0 111.5 49t40.5 121q0 71 -41 119.5t-111 48.5q-67 0 -107.5 -49.5t-40.5 -118.5q0 -70 40 -120t108 -50zM500 468v-459q0 -133 -50 -205t-178 -72q-99 0 -162 57t-64 155h90q0 -62 38.5 -97t101.5 -35q77 0 105.5 45t28.5 127v89h-2q-28 -41 -69.5 -65
t-89.5 -24q-104 0 -164 73.5t-60 179.5q0 100 61 172.5t159 72.5q103 0 163 -94h2v80h90z" />
    <glyph glyph-name="h" unicode="h" horiz-adv-x="523" 
d="M62 868h90v-463h2q20 37 58.5 57t82.5 20q92 0 129 -54t37 -149v-279h-90v268q0 69 -19.5 101.5t-83.5 32.5q-28 0 -49 -7t-33 -23t-19.5 -30.5t-10.5 -41t-3.5 -41.5t-0.5 -44v-215h-90v868z" />
    <glyph glyph-name="i" unicode="i" horiz-adv-x="254" 
d="M172 468v-468h-90v468h90zM127 745q26 0 44 -18.5t18 -44.5q0 -25 -18 -43t-44 -18t-44 18t-18 43q0 26 18 44.5t44 18.5z" />
    <glyph glyph-name="j" unicode="j" horiz-adv-x="254" 
d="M172 468v-736h-90v736h90zM127 745q26 0 44 -18.5t18 -44.5q0 -25 -18 -43t-44 -18t-44 18t-18 43q0 26 18 44.5t44 18.5z" />
    <glyph glyph-name="k" unicode="k" horiz-adv-x="462" 
d="M158 868v-576l176 176h119l-200 -194l220 -274h-117l-167 213l-31 -31v-182h-90v868h90z" />
    <glyph glyph-name="l" unicode="l" horiz-adv-x="222" 
d="M156 868v-868h-90v868h90z" />
    <glyph glyph-name="m" unicode="m" horiz-adv-x="767" 
d="M149 468v-59h2q20 32 53.5 52.5t70.5 20.5q87 0 135 -83q22 38 61 60.5t83 22.5q155 0 155 -202v-280h-90v265q0 27 -2.5 47.5t-11 43t-27 34.5t-46.5 12t-47.5 -11.5t-30 -28t-16.5 -41.5t-7.5 -45t-1.5 -46v-230h-90v248q0 24 -1 40t-5.5 40t-13 38t-25.5 25t-41 11
q-34 0 -56.5 -15.5t-32 -44t-12.5 -53.5t-3 -59v-230h-90v468h90z" />
    <glyph glyph-name="n" unicode="n" horiz-adv-x="523" 
d="M152 468v-63h2q20 37 58.5 57t82.5 20q92 0 129 -54t37 -149v-279h-90v268q0 69 -19.5 101.5t-83.5 32.5q-28 0 -49 -7t-33 -23t-19.5 -30.5t-10.5 -41t-3.5 -41.5t-0.5 -44v-215h-90v468h90z" />
    <glyph glyph-name="o" unicode="o" horiz-adv-x="540" 
d="M270 482q105 0 177.5 -72t72.5 -177t-72.5 -177t-177.5 -72t-177.5 72t-72.5 177t72.5 177t177.5 72zM270 396q-66 0 -113 -48t-47 -115q0 -66 47 -114.5t113 -48.5t113 48.5t47 114.5q0 67 -47 115t-113 48z" />
    <glyph glyph-name="p" unicode="p" horiz-adv-x="556" 
d="M288 64q71 0 111.5 49t40.5 121q0 71 -41 119.5t-111 48.5q-67 0 -107.5 -49.5t-40.5 -118.5q0 -70 40 -120t108 -50zM145 468v-78h2q61 92 163 92q98 0 159 -72.5t61 -172.5q0 -106 -60 -179.5t-164 -73.5q-48 0 -89.5 24t-69.5 65h-2v-341h-90v736h90z" />
    <glyph glyph-name="q" unicode="q" horiz-adv-x="556" 
d="M264 64q71 0 111.5 49t40.5 121q0 71 -41 119.5t-111 48.5q-67 0 -107.5 -49.5t-40.5 -118.5q0 -70 40 -120t108 -50zM501 468v-736h-90v341h-2q-28 -41 -69.5 -65t-89.5 -24q-104 0 -164 73.5t-60 179.5q0 100 61 172.5t159 72.5q102 0 163 -92h2v78h90z" />
    <glyph glyph-name="r" unicode="r" horiz-adv-x="351" 
d="M158 468v-76h3q17 42 50.5 66t77.5 24q38 0 74 -23l-41 -82q-22 19 -55 19q-35 0 -58 -14.5t-33.5 -41t-14 -52t-3.5 -58.5v-230h-90v468h90z" />
    <glyph glyph-name="s" unicode="s" horiz-adv-x="384" 
d="M323 400l-73 -39q-20 41 -60 41q-19 0 -34 -13.5t-15 -32.5q0 -9 2.5 -16.5t10 -14l13 -11.5t18 -11.5l19.5 -10t23.5 -10.5t22.5 -10q50 -23 79 -53t29 -80q0 -66 -47.5 -110.5t-113.5 -44.5q-53 0 -98.5 28.5t-63.5 76.5l77 35q33 -60 85 -60q29 0 50 18.5t21 47.5
t-33 51l-88 47q-46 25 -68 49.5t-22 68.5q0 57 40.5 96.5t97.5 39.5q88 0 128 -82z" />
    <glyph glyph-name="t" unicode="t" horiz-adv-x="240" 
d="M165 384v-384h-90v384h-49v84h49v179h90v-179h88v-84h-88z" />
    <glyph glyph-name="u" unicode="u" horiz-adv-x="512" 
d="M58 468h90v-259q0 -65 23.5 -103t84.5 -38t84.5 38t23.5 103v259h90v-269q0 -100 -49 -157.5t-149 -57.5t-149 57.5t-49 157.5v269z" />
    <glyph glyph-name="v" unicode="v" horiz-adv-x="445" 
d="M88 468l134 -292l135 292h101l-236 -484l-235 484h101z" />
    <glyph glyph-name="w" unicode="w" horiz-adv-x="718" 
d="M86 468l136 -298l138 324l137 -324l136 298h102l-238 -484l-137 313l-138 -313l-238 484h102z" />
    <glyph glyph-name="x" unicode="x" horiz-adv-x="489" 
d="M195 254l-168 214h106l111 -151l121 151h109l-172 -214l201 -254h-105l-154 190l-149 -190h-109z" />
    <glyph glyph-name="y" unicode="y" horiz-adv-x="484" 
d="M201 80l-214 388h105l158 -297l147 297h101l-379 -736h-102z" />
    <glyph glyph-name="z" unicode="z" horiz-adv-x="495" 
d="M177 84h304v-84h-479l317 384h-263v84h438z" />
    <glyph glyph-name="braceleft" unicode="{" horiz-adv-x="334" 
d="M48 271v73q75 33 75 151v182q0 55 29.5 93.5t55.5 38.5h78v-84h-40q-15 0 -22 -10t-8 -20t-1 -32v-184q0 -52 -18 -93.5t-31.5 -55.5t-26.5 -23q8 -5 18 -15t24.5 -29.5t24 -53t9.5 -73.5v-184q0 -22 1 -32t8 -20t22 -10h40v-84h-78q-26 0 -55.5 38.5t-29.5 93.5v182
q0 118 -75 151z" />
    <glyph glyph-name="bar" unicode="|" horiz-adv-x="570" 
d="M328 868v-868h-86v868h86z" />
    <glyph glyph-name="braceright" unicode="}" horiz-adv-x="334" 
d="M286 344v-73q-75 -33 -75 -151v-182q0 -55 -29.5 -93.5t-55.5 -38.5h-78v84h40q15 0 22 10t8 20t1 32v184q0 40 9.5 73.5t24 53t24.5 29.5t18 15q-13 9 -26.5 23t-31.5 55.5t-18 93.5v184q0 22 -1 32t-8 20t-22 10h-40v84h78q26 0 55.5 -38.5t29.5 -93.5v-182
q0 -118 75 -151z" />
    <glyph glyph-name="asciitilde" unicode="~" 
d="M478 334l67 -50q-67 -122 -152 -122q-40 0 -115 51l-21 14.5l-21 14.5t-17 11t-17.5 8.5t-13.5 2.5q-24 0 -45 -20t-47 -62l-63 45q22 32 30.5 43t30.5 35.5t44.5 34.5t47.5 10q55 0 122 -51q6 -5 18.5 -14.5l19 -14.5t15.5 -11t16.5 -8.5t14.5 -2.5q24 0 39.5 17
t39.5 57q5 8 7 12z" />
    <glyph glyph-name="sterling" unicode="&#xa3;" 
d="M90 -16l-79 40q31 54 65.5 82.5t88.5 30.5q30 100 -8 164h-129v58h100q-58 110 -58 180q0 95 75.5 163t171.5 68q105 0 170 -64.5t70 -169.5l-90 -34v28q0 63 -41.5 107.5t-104.5 44.5q-61 0 -111 -47.5t-50 -103.5q0 -24 8 -50t16.5 -42t24.5 -42.5t22 -37.5h148v-58
h-124q26 -84 0 -172l74 -26q6 -2 27.5 -11t37 -13.5t29.5 -4.5q19 0 36.5 13.5t26 26t20.5 34.5l75 -46q-23 -53 -62.5 -85.5t-93.5 -32.5q-48 0 -131 33q-79 32 -116 32q-62 0 -88 -65z" />
    <glyph glyph-name="currency" unicode="&#xa4;" 
d="M483 546l60 -60l-41 -44q42 -66 42 -142t-42 -142l41 -44l-60 -60l-46 44q-63 -48 -148 -48t-148 48l-46 -44l-60 60l41 44q-42 66 -42 142t42 142l-41 44l60 60l46 -44q63 48 148 48t148 -48zM289 130q72 0 123 50t52 120q1 74 -49 122t-126 48t-126 -48t-49 -122
q2 -70 52.5 -120t122.5 -50z" />
    <glyph glyph-name="brokenbar" unicode="&#xa6;" horiz-adv-x="570" 
d="M328 347v-347h-86v347h86zM328 868v-347h-86v347h86z" />
    <glyph glyph-name="section" unicode="&#xa7;" 
d="M214 335l175 -87q27 17 43.5 46t16.5 59q0 32 -19.5 51t-56.5 37l-184 93q-27 -17 -43.5 -46t-16.5 -60q0 -18 6.5 -32.5t22 -26t25.5 -18t31 -16.5zM310 192l-141 69q-33 16 -51.5 27t-39 29.5t-29.5 43t-9 57.5q0 90 96 162q-44 50 -44 111q0 75 57.5 126t133.5 51
q80 0 137 -45t62 -123h-87q-2 41 -35.5 65t-76.5 24q-42 0 -71.5 -29t-29.5 -71q0 -36 22.5 -58t62.5 -43l133 -67q31 -16 49 -26.5t42 -29t35.5 -42t11.5 -51.5q0 -49 -24.5 -94t-64.5 -75q53 -50 53 -122q0 -86 -63 -139.5t-150 -53.5q-99 0 -162.5 58t-63.5 157v15h89
q-2 -62 36 -105t100 -43q49 0 86.5 32t37.5 81q0 21 -8.5 38t-26.5 31t-30 21t-37 19z" />
    <glyph glyph-name="copyright" unicode="&#xa9;" horiz-adv-x="800" 
d="M400 -16q-165 0 -279.5 114.5t-114.5 278.5t114.5 278.5t279.5 114.5t279.5 -114.5t114.5 -278.5t-114.5 -278.5t-279.5 -114.5zM400 706q-136 0 -233 -95.5t-97 -233.5t97 -233.5t233 -95.5t233 95.5t97 233.5t-97 233.5t-233 95.5zM600 458h-61q-9 41 -42 63t-83 22
q-76 0 -114.5 -47.5t-38.5 -113.5q0 -72 41 -118t114 -46q102 0 123 89h61q-9 -69 -61.5 -111t-122.5 -42q-98 0 -158.5 65t-60.5 161q0 100 59 163.5t159 63.5q71 0 121.5 -40t63.5 -109z" />
    <glyph glyph-name="guillemotleft" unicode="&#xab;" horiz-adv-x="523" 
d="M311 320l149 -191l-56 -41l-182 232l182 240l56 -41zM119 320l149 -191l-56 -41l-182 232l182 240l56 -41z" />
    <glyph glyph-name="logicalnot" unicode="&#xac;" 
d="M459 115v184h-426v86h512v-270h-86z" />
    <glyph glyph-name="registered" unicode="&#xae;" horiz-adv-x="800" 
d="M400 -16q-165 0 -279.5 114.5t-114.5 278.5t114.5 278.5t279.5 114.5t279.5 -114.5t114.5 -278.5t-114.5 -278.5t-279.5 -114.5zM400 706q-136 0 -233 -95.5t-97 -233.5t97 -233.5t233 -95.5t233 95.5t97 233.5t-97 233.5t-233 95.5zM468 357l112 -204h-73l-113 204h-82
v-204h-64v442h186q152 0 152 -117q0 -60 -34 -89.5t-84 -31.5zM422 531h-110v-110h68q7 0 26.5 -0.5t28.5 0t25.5 1.5t25 4t18.5 8.5t14 15t4 21.5q0 20 -7.5 33t-23 18.5t-30.5 7t-39 1.5z" />
    <glyph glyph-name="degree" unicode="&#xb0;" horiz-adv-x="400" 
d="M350 620q0 -62 -44 -106t-106 -44t-105.5 44t-44.5 106q0 62 44 106t106 44t106 -44t44 -106zM199 720q-42 0 -70.5 -29t-28.5 -71q1 -43 29 -71.5t71 -28.5q42 0 71 28.5t29 71.5q0 42 -29 71t-72 29z" />
    <glyph glyph-name="plusminus" unicode="&#xb1;" 
d="M33 0v86h512v-86h-512zM246 562h86v-173h213v-86h-213v-173h-86v173h-213v86h213v173z" />
    <glyph glyph-name="mu" unicode="&#xb5;" horiz-adv-x="512" 
d="M58 468h90v-259q0 -65 23.5 -103t84.5 -38t84.5 38t23.5 103v259h90v-269q0 -100 -49 -157.5t-149 -57.5q-56 0 -108 44v-296h-90v736z" />
    <glyph glyph-name="mu" unicode="&#x3bc;" horiz-adv-x="512" 
d="M58 468h90v-259q0 -65 23.5 -103t84.5 -38t84.5 38t23.5 103v259h90v-269q0 -100 -49 -157.5t-149 -57.5q-56 0 -108 44v-296h-90v736z" />
    <glyph glyph-name="paragraph" unicode="&#xb6;" 
d="M538 754v-84h-61v-823h-84v823h-62v-823h-84v436q-86 0 -142.5 57t-63.5 157q-7 95 56.5 176t158.5 81h282zM247 -153h84h-84z" />
    <glyph glyph-name="periodcentered" unicode="&#xb7;" horiz-adv-x="289" 
d="M145 314q24 0 41 -17.5t17 -40.5q0 -24 -17 -41t-41 -17t-41 17t-17 41q0 23 17 40.5t41 17.5z" />
    <glyph glyph-name="periodcentered" unicode="&#x2219;" horiz-adv-x="289" 
d="M145 314q24 0 41 -17.5t17 -40.5q0 -24 -17 -41t-41 -17t-41 17t-17 41q0 23 17 40.5t41 17.5z" />
    <glyph glyph-name="guillemotright" unicode="&#xbb;" horiz-adv-x="523" 
d="M63 129l149 191l-149 199l56 41l182 -240l-182 -232zM255 129l149 191l-149 199l56 41l182 -240l-182 -232z" />
    <glyph glyph-name="divide" unicode="&#xf7;" 
d="M33 213v86h512v-86h-512zM289 124q26 0 44 -18.5t18 -44.5q0 -25 -18 -43t-44 -18t-44 18t-18 43q0 26 18 44.5t44 18.5zM289 512q26 0 44 -18.5t18 -44.5q0 -25 -18 -43t-44 -18t-44 18t-18 43q0 26 18 44.5t44 18.5z" />
    <glyph glyph-name="florin" unicode="&#x192;" 
d="M355 505h129l-9 -68h-131l-55 -303q-7 -42 -12.5 -67.5t-16 -59t-22 -53.5t-30 -42t-41.5 -34t-55.5 -19.5t-73.5 -7.5h-24l15 86h19q28 0 49.5 6.5t36.5 22t24.5 29t17 41.5t10.5 43t9 50l53 308h-65l9 68h70l21 124q17 100 60 153.5t137 53.5q33 0 60 -7l-16 -84
q-18 7 -41 7t-41 -8.5t-27.5 -18.5t-18 -32t-11.5 -34.5t-8 -40.5z" />
    <glyph glyph-name="Delta" unicode="&#x394;" horiz-adv-x="612" 
d="M608 0h-602l320 688zM72 49h412l-194 468z" />
    <glyph glyph-name="Delta" unicode="&#x2206;" horiz-adv-x="612" 
d="M608 0h-602l320 688zM72 49h412l-194 468z" />
    <glyph glyph-name="afii10023" unicode="&#x401;" horiz-adv-x="521" 
d="M72 0v754h405v-86h-311v-211h302v-86h-302v-285h311v-86h-405zM168 980q25 0 42.5 -17.5t17.5 -42.5t-17.5 -43t-42.5 -18q-26 0 -43.5 17.5t-17.5 43.5q0 25 18 42.5t43 17.5zM379 980q25 0 42.5 -17.5t17.5 -42.5t-17.5 -43t-42.5 -18t-43 17.5t-18 43.5q0 25 18 42.5
t43 17.5z" />
    <glyph glyph-name="afii10051" unicode="&#x402;" horiz-adv-x="657" 
d="M275 367v-367h-94v668h-179v86h452v-86h-179v-208q48 22 107 22q109 0 182.5 -72t73.5 -180q0 -104 -64.5 -175t-156.5 -71q-66 0 -95 13v104q23 -33 94 -33q58 0 95 47t37 119q0 66 -45.5 115t-110.5 49q-70 0 -117 -31z" />
    <glyph glyph-name="afii10052" unicode="&#x403;" horiz-adv-x="450" 
d="M316 1020l83 -44l-164 -149l-44 27zM428 668h-263v-668h-94v754h357v-86z" />
    <glyph glyph-name="afii10053" unicode="&#x404;" horiz-adv-x="661" 
d="M629 37q-90 -53 -198 -53q-162 0 -277.5 113t-115.5 276q0 167 117 282t284 115q107 0 190 -51v-109q-83 74 -199 74q-106 0 -185.5 -66.5t-103.5 -167.5h397v-88h-406q5 -121 90 -206.5t206 -85.5q114 0 201 78v-111z" />
    <glyph glyph-name="afii10054" unicode="&#x405;" horiz-adv-x="537" 
d="M482 656l-75 -45q-42 71 -121 71q-48 0 -87 -30t-39 -77q0 -68 105 -108l54 -21q90 -35 138.5 -87t48.5 -140q0 -102 -69.5 -168.5t-171.5 -66.5q-91 0 -156 59.5t-77 151.5l95 20q-1 -61 41.5 -102t104.5 -41q60 0 99.5 43.5t39.5 103.5q0 55 -34.5 86.5t-95.5 56.5
l-52 22q-76 32 -120 75.5t-44 115.5q0 88 66 141.5t156 53.5q130 0 194 -114z" />
    <glyph glyph-name="afii10055" unicode="&#x406;" horiz-adv-x="232" 
d="M163 754v-754h-94v754h94z" />
    <glyph glyph-name="afii10056" unicode="&#x407;" horiz-adv-x="232" 
d="M163 754v-754h-94v754h94zM11 980q25 0 42.5 -17.5t17.5 -42.5t-17.5 -43t-42.5 -18t-43 17.5t-18 43.5q0 25 18 42.5t43 17.5zM222 980q25 0 42.5 -17.5t17.5 -42.5t-17.5 -43t-42.5 -18q-26 0 -43.5 17.5t-17.5 43.5q0 25 18 42.5t43 17.5z" />
    <glyph glyph-name="afii10057" unicode="&#x408;" horiz-adv-x="362" 
d="M209 754h94v-479q0 -61 -7.5 -107.5t-28 -91t-63 -68.5t-105.5 -24t-118 33l47 80q33 -25 75 -25q22 0 39.5 8t28.5 18t19 30t11.5 34t5.5 40t2 37v36v479z" />
    <glyph glyph-name="afii10058" unicode="&#x409;" horiz-adv-x="962" 
d="M945 211q0 -106 -76 -158.5t-186 -52.5h-166v666h-268v-399q0 -124 -44 -195.5t-136 -71.5h-41v80h19q34 0 56.5 17.5t33 50t14.5 66t4 79.5v461h456v-316h66q121 0 194.5 -58.5t73.5 -168.5zM851 217q0 50 -30 82t-70.5 43.5t-91.5 11.5h-48v-270h62q178 0 178 133z" />
    <glyph glyph-name="afii10059" unicode="&#x40a;" horiz-adv-x="962" 
d="M581 354v-270h62q178 0 178 133q0 50 -30 82t-70.5 43.5t-91.5 11.5h-48zM487 350h-329v-350h-94v754h94v-316h329v316h94v-316h66q121 0 194.5 -58.5t73.5 -168.5q0 -106 -76 -158.5t-186 -52.5h-166v350z" />
    <glyph glyph-name="afii10060" unicode="&#x40b;" horiz-adv-x="681" 
d="M275 440q86 8 138 8q95 0 159.5 -48t64.5 -132v-268h-94v266q0 98 -154 98q-49 0 -114 -7v-357h-94v668h-179v86h452v-86h-179v-228z" />
    <glyph glyph-name="afii10061" unicode="&#x40c;" horiz-adv-x="600" 
d="M166 427l320 327h123l-339 -339l345 -415h-127l-284 351l-38 -36v-315h-94v754h94v-327zM376 1020l83 -44l-164 -149l-44 27z" />
    <glyph glyph-name="afii10062" unicode="&#x40e;" horiz-adv-x="575" 
d="M588 754l-391 -754h-96l135 266l-253 488h103l199 -392l200 392h103zM472 962q-12 -55 -63.5 -95t-116.5 -40t-114.5 37.5t-63.5 94.5l70 18q34 -80 108 -80t109 79z" />
    <glyph glyph-name="afii10145" unicode="&#x40f;" horiz-adv-x="705" 
d="M298 0h-234v754h94v-666h359v666h94v-754h-219v-178h-94v178z" />
    <glyph glyph-name="afii10017" unicode="&#x410;" horiz-adv-x="703" 
d="M525 189h-346l-86 -189h-101l360 786l360 -786h-101zM486 275l-134 305l-134 -305h268z" />
    <glyph glyph-name="afii10018" unicode="&#x411;" horiz-adv-x="525" 
d="M158 345v-261h72q178 0 178 133q0 38 -17.5 64.5t-47.5 39.5t-61 18.5t-66 5.5h-58zM158 668v-238h76q122 0 195 -54.5t73 -164.5q0 -106 -76 -158.5t-186 -52.5h-176v754h363v-86h-269z" />
    <glyph glyph-name="afii10019" unicode="&#x412;" horiz-adv-x="535" 
d="M158 670v-250h24q78 0 120 26t42 100q0 73 -41.5 98.5t-118.5 25.5h-26zM158 345v-261h72q178 0 178 133q0 38 -17.5 64.5t-47.5 39.5t-61 18.5t-66 5.5h-58zM64 0v754h92q58 0 104 -9t86.5 -30.5t63 -64t22.5 -103.5q0 -43 -22 -84.5t-59 -58.5v-2q65 -12 108 -67.5
t43 -123.5q0 -106 -76 -158.5t-186 -52.5h-176z" />
    <glyph glyph-name="afii10020" unicode="&#x413;" horiz-adv-x="464" 
d="M458 668h-293v-668h-94v754h387v-86z" />
    <glyph glyph-name="afii10021" unicode="&#x414;" horiz-adv-x="675" 
d="M92 0v-178h-94v266h22q62 0 105 85t43 193v388h408v-666h96v-266h-94v178h-486zM482 88v578h-220v-270q0 -112 -24.5 -191.5t-67.5 -116.5h312z" />
    <glyph glyph-name="afii10022" unicode="&#x415;" horiz-adv-x="521" 
d="M72 0v754h405v-86h-311v-211h302v-86h-302v-285h311v-86h-405z" />
    <glyph glyph-name="afii10024" unicode="&#x416;" horiz-adv-x="903" 
d="M905 0h-125l-270 342l-15 -15v-327h-94v327l-15 15l-270 -342h-125l331 404l-327 350h123l280 -315h3v315h94v-315h3l280 315h123l-327 -350z" />
    <glyph glyph-name="afii10025" unicode="&#x417;" horiz-adv-x="548" 
d="M260 365h-61v82h61q148 0 148 115q0 56 -36.5 88.5t-94.5 32.5q-94 0 -131 -96l-75 40q57 143 209 143q94 0 159 -54.5t65 -145.5q0 -110 -102 -166q55 -24 84 -76t29 -115q0 -103 -71.5 -166t-175.5 -63q-92 0 -164 56.5t-80 144.5l90 19q7 -54 54.5 -93.5t102.5 -39.5
q63 0 105.5 42t42.5 104q0 70 -43.5 109t-115.5 39z" />
    <glyph glyph-name="afii10026" unicode="&#x418;" horiz-adv-x="675" 
d="M612 0h-94v537l-456 -568v785h94v-525l456 561v-790z" />
    <glyph glyph-name="afii10027" unicode="&#x419;" horiz-adv-x="675" 
d="M529 957v1q-12 -55 -63.5 -95t-116.5 -40t-114.5 37.5t-63.5 94.5l70 18q34 -81 108 -81q41 -1 66 19.5t43 60.5zM612 1h-94v537l-456 -568v785h94v-525l456 561v-790z" />
    <glyph glyph-name="afii10028" unicode="&#x41a;" horiz-adv-x="600" 
d="M166 427l320 327h123l-339 -339l345 -415h-127l-284 351l-38 -36v-315h-94v754h94v-327z" />
    <glyph glyph-name="afii10029" unicode="&#x41b;" horiz-adv-x="675" 
d="M249 666v-399q0 -124 -44 -195.5t-136 -71.5h-41v80h19q34 0 56.5 17.5t33 50t14.5 66t4 79.5v461h456v-754h-94v666h-268z" />
    <glyph glyph-name="afii10030" unicode="&#x41c;" horiz-adv-x="851" 
d="M426 -16l-226 514h-2l-88 -498h-97l154 786l259 -594l259 594l154 -786h-97l-88 498h-2z" />
    <glyph glyph-name="afii10031" unicode="&#x41d;" horiz-adv-x="675" 
d="M158 450h359v304h94v-754h-94v362h-359v-362h-94v754h94v-304z" />
    <glyph glyph-name="afii10032" unicode="&#x41e;" horiz-adv-x="828" 
d="M414 770q162 0 278.5 -115.5t116.5 -277.5q0 -167 -115 -280t-280 -113t-280 113t-115 280q0 162 116.5 277.5t278.5 115.5zM414 72q123 0 212 88.5t89 216.5q0 127 -85.5 216t-215.5 89t-215.5 -89t-85.5 -216q0 -128 89 -216.5t212 -88.5z" />
    <glyph glyph-name="afii10033" unicode="&#x41f;" horiz-adv-x="675" 
d="M611 754v-754h-94v666h-359v-666h-94v754h547z" />
    <glyph glyph-name="afii10034" unicode="&#x420;" horiz-adv-x="495" 
d="M166 316v-316h-94v754h108q167 0 235.5 -54.5t68.5 -163.5q0 -112 -73.5 -166t-190.5 -54h-54zM166 670v-270h30q41 0 72.5 5t62.5 18.5t48 42.5t17 72q0 42 -18 70t-51 40.5t-64 17t-72 4.5h-25z" />
    <glyph glyph-name="afii10035" unicode="&#x421;" horiz-adv-x="661" 
d="M621 719v-109q-83 74 -199 74q-125 0 -211.5 -90.5t-86.5 -217.5q0 -125 85.5 -215.5t210.5 -90.5q114 0 201 78v-111q-90 -53 -198 -53q-162 0 -277.5 113t-115.5 276q0 167 117 282t284 115q107 0 190 -51z" />
    <glyph glyph-name="afii10036" unicode="&#x422;" horiz-adv-x="456" 
d="M275 668v-668h-94v668h-179v86h452v-86h-179z" />
    <glyph glyph-name="afii10037" unicode="&#x423;" horiz-adv-x="600" 
d="M603 754l-391 -754h-96l135 266l-253 488h103l199 -392l200 392h103z" />
    <glyph glyph-name="afii10038" unicode="&#x424;" horiz-adv-x="863" 
d="M845 396q0 -133 -94.5 -215.5t-251.5 -82.5h-14v-98h-94v98h-14q-157 0 -251.5 82.5t-94.5 215.5q0 134 89.5 214.5t266.5 80.5h4v63h94v-63h4q177 0 266.5 -80.5t89.5 -214.5zM757 398q0 110 -76.5 161t-195.5 51v-430q125 0 198.5 55.5t73.5 162.5zM391 180v430
q-119 0 -195.5 -51t-76.5 -161q0 -107 73.5 -162.5t198.5 -55.5z" />
    <glyph glyph-name="afii10039" unicode="&#x425;" horiz-adv-x="574" 
d="M237 395l-208 359h107l154 -275l164 275h107l-217 -359l229 -395h-105l-178 309l-185 -309h-105z" />
    <glyph glyph-name="afii10040" unicode="&#x426;" horiz-adv-x="705" 
d="M613 0h-549v754h94v-666h359v666h94v-666h96v-266h-94v178z" />
    <glyph glyph-name="afii10041" unicode="&#x427;" horiz-adv-x="598" 
d="M147 488q0 -98 154 -98q77 0 140 10v354h94v-754h-94v316q-110 -10 -164 -10q-95 0 -159.5 48t-64.5 132v268h94v-266z" />
    <glyph glyph-name="afii10042" unicode="&#x428;" horiz-adv-x="997" 
d="M548 88h296v666h94v-754h-874v754h94v-666h296v666h94v-666z" />
    <glyph glyph-name="afii10043" unicode="&#x429;" horiz-adv-x="1024" 
d="M548 88h296v666h94v-666h96v-266h-94v178h-876v754h94v-666h296v666h94v-666z" />
    <glyph glyph-name="afii10044" unicode="&#x42a;" horiz-adv-x="605" 
d="M258 354v-270h62q178 0 178 133q0 50 -30 82t-70.5 43.5t-91.5 11.5h-48zM164 668h-162v86h256v-316h66q121 0 194.5 -58.5t73.5 -168.5q0 -106 -76 -158.5t-186 -52.5h-166v668z" />
    <glyph glyph-name="afii10045" unicode="&#x42b;" horiz-adv-x="715" 
d="M158 354v-270h62q178 0 178 133q0 50 -30 82t-70.5 43.5t-91.5 11.5h-48zM158 754v-316h66q121 0 194.5 -58.5t73.5 -168.5q0 -106 -76 -158.5t-186 -52.5h-166v754h94zM557 754h94v-754h-94v754z" />
    <glyph glyph-name="afii10046" unicode="&#x42c;" horiz-adv-x="505" 
d="M158 354v-270h62q178 0 178 133q0 50 -30 82t-70.5 43.5t-91.5 11.5h-48zM158 754v-316h66q121 0 194.5 -58.5t73.5 -168.5q0 -106 -76 -158.5t-186 -52.5h-166v754h94z" />
    <glyph glyph-name="afii10047" unicode="&#x42d;" horiz-adv-x="661" 
d="M628 373q0 -163 -115.5 -276t-277.5 -113q-108 0 -198 53v111q87 -78 201 -78q121 0 206 85.5t90 206.5h-406v88h397q-24 101 -103.5 167.5t-185.5 66.5q-116 0 -199 -74v109q83 51 190 51q167 0 284 -115t117 -282z" />
    <glyph glyph-name="afii10048" unicode="&#x42e;" horiz-adv-x="1028" 
d="M1009 377q0 -167 -115 -280t-280 -113q-161 0 -275 108.5t-120 269.5h-61v-362h-94v754h94v-304h68q26 137 136 228.5t252 91.5q162 0 278.5 -115.5t116.5 -277.5zM915 377q0 127 -85.5 216t-215.5 89t-215.5 -89t-85.5 -216q0 -128 89 -216.5t212 -88.5t212 88.5
t89 216.5z" />
    <glyph glyph-name="afii10049" unicode="&#x42f;" horiz-adv-x="543" 
d="M485 0h-94v319h-39l-222 -319h-114l238 328q-81 10 -131 69.5t-50 141.5q0 55 26.5 104t72.5 76q28 16 65.5 24t64 9.5t69.5 1.5h114v-754zM391 397v273h-25q-205 0 -205 -135q0 -43 17 -72t48 -42.5t62.5 -18.5t72.5 -5h30z" />
    <glyph glyph-name="afii10065" unicode="&#x430;" horiz-adv-x="556" 
d="M264 64q71 0 111.5 49t40.5 121q0 71 -41 119.5t-111 48.5q-67 0 -107.5 -49.5t-40.5 -118.5q0 -70 40 -120t108 -50zM501 468v-468h-90v73h-2q-60 -89 -159 -89q-103 0 -163.5 73.5t-60.5 179.5q0 100 61 172.5t160 72.5q101 0 162 -92h2v78h90z" />
    <glyph glyph-name="afii10066" unicode="&#x431;" horiz-adv-x="540" 
d="M270 396q-66 0 -113 -48t-47 -115q0 -66 47 -114.5t113 -48.5t113 48.5t47 114.5q0 67 -47 115t-113 48zM290 482q89 0 159.5 -71t70.5 -178q0 -105 -72.5 -177t-177.5 -72q-113 0 -181.5 78t-68.5 221q0 416 294 519q55 19 75.5 32t25.5 34h99q0 -45 -51.5 -85.5
t-118.5 -55.5q-92 -20 -159.5 -116t-78.5 -217h3q26 43 74 65.5t107 22.5z" />
    <glyph glyph-name="afii10067" unicode="&#x432;" horiz-adv-x="510" 
d="M306 468q76 0 106 -35.5t30 -83.5q0 -65 -63 -93v-2q41 -5 69 -38t28 -78q0 -22 -6 -43t-21 -44t-48.5 -37t-80.5 -14h-258v468h244zM152 281h111q89 0 89 56q0 50 -89 50h-111v-106zM152 80h136q19 0 39 4t39.5 20t19.5 42q0 60 -95 60h-139v-126z" />
    <glyph glyph-name="afii10068" unicode="&#x433;" horiz-adv-x="381" 
d="M372 384h-220v-384h-90v468h310v-84z" />
    <glyph glyph-name="afii10069" unicode="&#x434;" horiz-adv-x="515" 
d="M93 0v-144h-90v228q59 4 79 49t20 125v210h349v-384h62v-228h-90v144h-330zM192 384v-167q0 -90 -53 -133h222v300h-169z" />
    <glyph glyph-name="afii10070" unicode="&#x435;" horiz-adv-x="488" 
d="M473 219h-357q1 -63 40 -109t101 -46q49 0 80.5 22.5t59.5 68.5l76 -43q-33 -60 -90.5 -94t-126.5 -34q-105 0 -167.5 70t-62.5 176q0 112 59 182t169 70q107 0 163 -69.5t56 -179.5v-14zM121 287h262q-8 54 -42 85.5t-87 31.5q-52 0 -88.5 -33t-44.5 -84z" />
    <glyph glyph-name="afii10072" unicode="&#x436;" horiz-adv-x="685" 
d="M683 0h-117l-165 208l-13 -11v-197h-90v197l-13 11l-165 -208h-117l220 257l-210 210h119l164 -178h2v179h90v-179h2l164 178h119l-210 -210z" />
    <glyph glyph-name="afii10073" unicode="&#x437;" horiz-adv-x="440" 
d="M176 282h35q90 0 90 65q0 55 -81 55q-68 0 -99 -49l-73 39q25 43 72 66.5t105 23.5q76 0 121 -33.5t45 -99.5q0 -31 -21 -56t-56 -37v-2q41 -6 69 -38.5t28 -77.5q0 -72 -55.5 -113t-146.5 -41q-59 0 -115 28t-74 75l77 35q14 -26 44.5 -42t67.5 -16q39 0 75.5 17
t36.5 55q0 36 -19.5 56t-72.5 20h-53v70z" />
    <glyph glyph-name="afii10074" unicode="&#x438;" horiz-adv-x="523" 
d="M462 0h-90v288l-310 -309v489h90v-288l310 309v-489z" />
    <glyph glyph-name="afii10075" unicode="&#x439;" horiz-adv-x="523" 
d="M462 0h-90v288l-310 -309v489h90v-288l310 309v-489zM447 678q-12 -52 -60 -89.5t-110 -37.5q-61 0 -108 35.5t-60 89.5l66 16q32 -75 102 -75q39 0 62.5 18.5t40.5 56.5z" />
    <glyph glyph-name="afii10076" unicode="&#x43a;" horiz-adv-x="462" 
d="M158 468v-190h2l174 190h119l-200 -208l220 -260h-117l-167 199l-31 -31v-168h-90v468h90z" />
    <glyph glyph-name="afii10077" unicode="&#x43b;" horiz-adv-x="523" 
d="M462 468v-468h-90v384h-183v-237q0 -68 -37 -107.5t-91 -39.5h-40v81h14q64 0 64 85v302h363z" />
    <glyph glyph-name="afii10078" unicode="&#x43c;" horiz-adv-x="620" 
d="M158 484l153 -324l154 324l155 -484h-97l-74 261h-2l-136 -277l-136 276h-2l-74 -260h-101z" />
    <glyph glyph-name="afii10079" unicode="&#x43d;" horiz-adv-x="523" 
d="M462 0h-90v211h-220v-211h-90v468h90v-173h220v173h90v-468z" />
    <glyph glyph-name="afii10080" unicode="&#x43e;" horiz-adv-x="540" 
d="M270 482q105 0 177.5 -72t72.5 -177t-72.5 -177t-177.5 -72t-177.5 72t-72.5 177t72.5 177t177.5 72zM270 396q-66 0 -113 -48t-47 -115q0 -66 47 -114.5t113 -48.5t113 48.5t47 114.5q0 67 -47 115t-113 48z" />
    <glyph glyph-name="afii10081" unicode="&#x43f;" horiz-adv-x="523" 
d="M462 0h-90v384h-220v-384h-90v468h400v-468z" />
    <glyph glyph-name="afii10082" unicode="&#x440;" horiz-adv-x="556" 
d="M288 64q71 0 111.5 49t40.5 121q0 71 -41 119.5t-111 48.5q-67 0 -107.5 -49.5t-40.5 -118.5q0 -70 40 -120t108 -50zM145 468v-78h2q61 92 163 92q98 0 159 -72.5t61 -172.5q0 -106 -60 -179.5t-164 -73.5q-48 0 -89.5 24t-69.5 65h-2v-341h-90v736h90z" />
    <glyph glyph-name="afii10083" unicode="&#x441;" horiz-adv-x="441" 
d="M406 451v-116q-55 63 -134 63q-65 0 -110.5 -49t-45.5 -115q0 -72 45.5 -119t116.5 -47q73 0 128 62v-115q-58 -31 -129 -31q-104 0 -177.5 71t-73.5 175q0 108 73.5 180t182.5 72q71 0 124 -31z" />
    <glyph glyph-name="afii10084" unicode="&#x442;" horiz-adv-x="419" 
d="M254 384v-384h-90v384h-159v84h408v-84h-159z" />
    <glyph glyph-name="afii10085" unicode="&#x443;" horiz-adv-x="484" 
d="M201 80l-214 388h105l158 -297l147 297h101l-379 -736h-102z" />
    <glyph glyph-name="afii10086" unicode="&#x444;" horiz-adv-x="682" 
d="M657 233q0 -110 -80 -176.5t-190 -66.5v-258h-90v258q-110 0 -190 66.5t-80 176.5q0 111 79.5 177.5t190.5 66.5v391h90v-391q111 0 190.5 -66.5t79.5 -177.5zM567 233q0 72 -54.5 117.5t-125.5 45.5v-326q71 0 125.5 45.5t54.5 117.5zM297 70v326q-71 0 -125.5 -45.5
t-54.5 -117.5t54.5 -117.5t125.5 -45.5z" />
    <glyph glyph-name="afii10087" unicode="&#x445;" horiz-adv-x="489" 
d="M195 254l-168 214h106l111 -151l121 151h109l-172 -214l201 -254h-105l-154 190l-149 -190h-109z" />
    <glyph glyph-name="afii10088" unicode="&#x446;" horiz-adv-x="533" 
d="M444 0h-382v468h90v-384h220v384h90v-384h72v-228h-90v144z" />
    <glyph glyph-name="afii10089" unicode="&#x447;" horiz-adv-x="491" 
d="M206 169q-78 0 -114.5 34.5t-36.5 113.5v151h90v-122q0 -34 9 -56t27.5 -30.5t33 -11t37.5 -2.5q45 0 88 7v215h90v-468h-90v183q-84 -14 -134 -14z" />
    <glyph glyph-name="afii10090" unicode="&#x448;" horiz-adv-x="758" 
d="M427 84h185v384h90v-468h-640v468h90v-384h185v384h90v-384z" />
    <glyph glyph-name="afii10091" unicode="&#x449;" horiz-adv-x="773" 
d="M774 -144h-90v144h-622v468h90v-384h185v384h90v-384h185v384h90v-384h72v-228z" />
    <glyph glyph-name="afii10092" unicode="&#x44a;" horiz-adv-x="577" 
d="M222 83h121q32 0 66.5 17t34.5 54q0 28 -23 49.5t-75 21.5h-124v-142zM132 384h-127v84h217v-160h130q182 0 182 -152q0 -28 -6.5 -52t-22.5 -49t-49 -40t-81 -15h-243v384z" />
    <glyph glyph-name="afii10093" unicode="&#x44b;" horiz-adv-x="673" 
d="M522 468h90v-468h-90v468zM152 83h121q32 0 66.5 17t34.5 54q0 28 -23 49.5t-75 21.5h-124v-142zM152 468v-160h130q182 0 182 -152q0 -28 -6.5 -52t-22.5 -49t-49 -40t-81 -15h-243v468h90z" />
    <glyph glyph-name="afii10094" unicode="&#x44c;" horiz-adv-x="497" 
d="M152 83h121q32 0 66.5 17t34.5 54q0 28 -23 49.5t-75 21.5h-124v-142zM152 468v-160h130q182 0 182 -152q0 -28 -6.5 -52t-22.5 -49t-49 -40t-81 -15h-243v468h90z" />
    <glyph glyph-name="afii10095" unicode="&#x44d;" horiz-adv-x="441" 
d="M331 213h-231v68h225q-15 50 -55.5 83.5t-93.5 33.5q-79 0 -134 -63v116q53 31 124 31q109 0 182.5 -72t73.5 -180q0 -104 -73.5 -175t-177.5 -71q-71 0 -129 31v115q55 -62 128 -62q66 0 110 40.5t51 104.5z" />
    <glyph glyph-name="afii10096" unicode="&#x44e;" horiz-adv-x="750" 
d="M480 396q-66 0 -113 -48t-47 -115q0 -66 47 -114.5t113 -48.5t113 48.5t47 114.5q0 67 -47 115t-113 48zM231 211h-79v-211h-90v468h90v-173h85q20 82 87.5 134.5t155.5 52.5q105 0 177.5 -72t72.5 -177t-72.5 -177t-177.5 -72q-100 0 -170.5 64.5t-78.5 162.5z" />
    <glyph glyph-name="afii10097" unicode="&#x44f;" horiz-adv-x="500" 
d="M439 0h-90v181h-85l-147 -181h-116l161 191q-42 6 -76 38.5t-34 88.5q0 61 39 105.5t126 44.5h222v-468zM349 260v124h-109q-102 0 -102 -61q0 -63 102 -63h109z" />
    <glyph glyph-name="afii10071" unicode="&#x451;" horiz-adv-x="488" 
d="M473 219h-357q1 -63 40 -109t101 -46q49 0 80.5 22.5t59.5 68.5l76 -43q-33 -60 -90.5 -94t-126.5 -34q-105 0 -167.5 70t-62.5 176q0 112 59 182t169 70q107 0 163 -69.5t56 -179.5v-14zM121 287h262q-8 54 -42 85.5t-87 31.5q-52 0 -88.5 -33t-44.5 -84zM139 694
q25 0 42.5 -17.5t17.5 -42.5t-17.5 -43t-42.5 -18t-43 17.5t-18 43.5q0 25 18 42.5t43 17.5zM350 694q25 0 42.5 -17.5t17.5 -42.5t-17.5 -43t-42.5 -18q-26 0 -43.5 17.5t-17.5 43.5q0 25 18 42.5t43 17.5z" />
    <glyph glyph-name="afii10099" unicode="&#x452;" horiz-adv-x="506" 
d="M165 405h2q20 37 58.5 57t82.5 20q166 0 166 -203q0 -99 -41 -197.5t-111 -215.5h-100q79 113 120.5 207.5t41.5 194.5q0 27 -3.5 47.5t-13.5 42t-31.5 33t-54.5 11.5q-28 0 -49 -7t-33 -23t-19.5 -30.5t-10.5 -41t-3.5 -41.5t-0.5 -44v-215h-90v564h-49v84h49v219h90
v-219h168v-84h-168v-159z" />
    <glyph glyph-name="afii10100" unicode="&#x453;" horiz-adv-x="381" 
d="M372 384h-220v-384h-90v468h310v-84zM272 716l83 -44l-164 -149l-44 27z" />
    <glyph glyph-name="afii10101" unicode="&#x454;" horiz-adv-x="441" 
d="M410 15q-58 -31 -129 -31q-104 0 -177.5 71t-73.5 175q0 108 73.5 180t182.5 72q71 0 124 -31v-116q-55 63 -134 63q-53 0 -93.5 -33.5t-55.5 -83.5h225v-68h-231q7 -64 51 -104.5t110 -40.5q73 0 128 62v-115z" />
    <glyph glyph-name="afii10102" unicode="&#x455;" horiz-adv-x="384" 
d="M323 400l-73 -39q-20 41 -60 41q-19 0 -34 -13.5t-15 -32.5q0 -9 2.5 -16.5t10 -14l13 -11.5t18 -11.5l19.5 -10t23.5 -10.5t22.5 -10q50 -23 79 -53t29 -80q0 -66 -47.5 -110.5t-113.5 -44.5q-53 0 -98.5 28.5t-63.5 76.5l77 35q33 -60 85 -60q29 0 50 18.5t21 47.5
t-33 51l-88 47q-46 25 -68 49.5t-22 68.5q0 57 40.5 96.5t97.5 39.5q88 0 128 -82z" />
    <glyph glyph-name="afii10103" unicode="&#x456;" horiz-adv-x="254" 
d="M172 468v-468h-90v468h90zM127 745q26 0 44 -18.5t18 -44.5q0 -25 -18 -43t-44 -18t-44 18t-18 43q0 26 18 44.5t44 18.5z" />
    <glyph glyph-name="afii10104" unicode="&#x457;" horiz-adv-x="254" 
d="M172 468v-468h-90v468h90zM22 694q25 0 42.5 -17.5t17.5 -42.5t-17.5 -43t-42.5 -18q-26 0 -43.5 17.5t-17.5 43.5q0 25 18 42.5t43 17.5zM233 694q25 0 42.5 -17.5t17.5 -42.5t-17.5 -43t-42.5 -18t-43 17.5t-18 43.5q0 25 18 42.5t43 17.5z" />
    <glyph glyph-name="afii10105" unicode="&#x458;" horiz-adv-x="254" 
d="M172 468v-736h-90v736h90zM127 745q26 0 44 -18.5t18 -44.5q0 -25 -18 -43t-44 -18t-44 18t-18 43q0 26 18 44.5t44 18.5z" />
    <glyph glyph-name="afii10106" unicode="&#x459;" horiz-adv-x="784" 
d="M754 150q0 -27 -6.5 -51t-22.5 -47.5t-49 -37.5t-81 -14h-223v384h-183v-237q0 -68 -37 -107.5t-91 -39.5h-40v81h14q64 0 64 85v302h363v-173h110q182 0 182 -145zM664 148q0 27 -23 45.5t-75 18.5h-104v-129h101q33 0 67 15t34 50z" />
    <glyph glyph-name="afii10107" unicode="&#x45a;" horiz-adv-x="784" 
d="M754 150q0 -27 -6.5 -51t-22.5 -47.5t-49 -37.5t-81 -14h-223v211h-220v-211h-90v468h90v-173h220v173h90v-173h110q182 0 182 -145zM664 148q0 27 -23 45.5t-75 18.5h-104v-129h101q33 0 67 15t34 50z" />
    <glyph glyph-name="afii10108" unicode="&#x45b;" horiz-adv-x="523" 
d="M474 0h-90v268q0 69 -19.5 101.5t-83.5 32.5q-28 0 -49 -7t-33 -23t-19.5 -30.5t-10.5 -41t-3.5 -41.5t-0.5 -44v-215h-90v564h-49v84h49v219h90v-219h168v-84h-168v-159h2q20 37 58.5 57t82.5 20q92 0 129 -54t37 -149v-279z" />
    <glyph glyph-name="afii10109" unicode="&#x45c;" horiz-adv-x="462" 
d="M312 716l83 -44l-164 -149l-44 27zM158 468v-190h2l174 190h119l-200 -208l220 -260h-117l-167 199l-31 -31v-168h-90v468h90z" />
    <glyph glyph-name="afii10110" unicode="&#x45e;" horiz-adv-x="484" 
d="M201 80l-214 388h105l158 -297l147 297h101l-379 -736h-102zM417 678q-12 -52 -60 -89.5t-110 -37.5q-61 0 -108 35.5t-60 89.5l66 16q32 -75 102 -75q39 0 62.5 18.5t40.5 56.5z" />
    <glyph glyph-name="afii10193" unicode="&#x45f;" horiz-adv-x="533" 
d="M220 0h-158v468h90v-384h220v384h90v-468h-152v-144h-90v144z" />
    <glyph glyph-name="afii10050" unicode="&#x490;" horiz-adv-x="464" 
d="M458 668h-293v-668h-94v754h293v180h94v-266z" />
    <glyph glyph-name="afii10098" unicode="&#x491;" horiz-adv-x="381" 
d="M372 384h-220v-384h-90v468h220v144h90v-228z" />
    <glyph glyph-name="endash" unicode="&#x2013;" horiz-adv-x="500" 
d="M20 308h460v-75h-460v75z" />
    <glyph glyph-name="emdash" unicode="&#x2014;" horiz-adv-x="1000" 
d="M20 308h960v-75h-960v75z" />
    <glyph glyph-name="quoteleft" unicode="&#x2018;" horiz-adv-x="277" 
d="M139 472l-79 31l133 267l56 -23z" />
    <glyph glyph-name="quoteright" unicode="&#x2019;" horiz-adv-x="277" 
d="M138 770l79 -31l-133 -267l-56 23z" />
    <glyph glyph-name="quotesinglbase" unicode="&#x201a;" horiz-adv-x="277" 
d="M164 119l78 -31l-133 -267l-55 23z" />
    <glyph glyph-name="quotedblleft" unicode="&#x201c;" horiz-adv-x="439" 
d="M305 472l-79 31l133 267l56 -23zM139 472l-79 31l133 267l56 -23z" />
    <glyph glyph-name="quotedblright" unicode="&#x201d;" horiz-adv-x="439" 
d="M134 770l79 -31l-133 -267l-56 23zM300 770l79 -31l-133 -267l-56 23z" />
    <glyph glyph-name="quotedblbase" unicode="&#x201e;" horiz-adv-x="439" 
d="M160 119l78 -31l-133 -267l-55 23zM326 119l78 -31l-133 -267l-55 23z" />
    <glyph glyph-name="dagger" unicode="&#x2020;" 
d="M244 868h90v-275h181v-86h-181v-595h-90v595h-181v86h181v275z" />
    <glyph glyph-name="daggerdbl" unicode="&#x2021;" 
d="M244 868h90v-239h181v-86h-181v-122h181v-86h-181v-422h-90v422h-181v86h181v122h-181v86h181v239z" />
    <glyph glyph-name="bullet" unicode="&#x2022;" 
d="M289 189h1q-78 0 -133 55t-56 133q-1 79 54 134t134 55t134 -55t55 -134q0 -78 -55.5 -133t-133.5 -55z" />
    <glyph glyph-name="ellipsis" unicode="&#x2026;" horiz-adv-x="1000" 
d="M500 100q24 0 41 -17.5t17 -40.5q0 -24 -17 -41t-41 -17t-41 17t-17 41q0 23 17 40.5t41 17.5zM834 100q24 0 41 -17.5t17 -40.5q0 -24 -17 -41t-41 -17t-41 17t-17 41q0 23 17 40.5t41 17.5zM166 100q24 0 41 -17.5t17 -40.5q0 -24 -17 -41t-41 -17t-41 17t-17 41
q0 23 17 40.5t41 17.5z" />
    <glyph glyph-name="perthousand" unicode="&#x2030;" horiz-adv-x="1110" 
d="M198 770q72 0 124 -50.5t52 -121.5t-52.5 -121t-123.5 -50t-123.5 50t-52.5 121t52 121.5t124 50.5zM198 710q-47 0 -81.5 -33t-34.5 -79q0 -45 34.5 -78t81.5 -33t81.5 33t34.5 78q0 46 -34.5 79t-81.5 33zM557 770l45 -26l-440 -760l-46 25zM521 327q72 0 124 -50.5
t52 -121.5t-52.5 -121t-123.5 -50t-123.5 50t-52.5 121t52 121.5t124 50.5zM521 267q-47 0 -81.5 -33t-34.5 -79q0 -45 34.5 -78t81.5 -33t81.5 33t34.5 78q0 46 -34.5 79t-81.5 33zM913 327q72 0 124 -50.5t52 -121.5t-52.5 -121t-123.5 -50t-123.5 50t-52.5 121t52 121.5
t124 50.5zM913 267q-47 0 -81.5 -33t-34.5 -79q0 -45 34.5 -78t81.5 -33t81.5 33t34.5 78q0 46 -34.5 79t-81.5 33z" />
    <glyph glyph-name="guilsinglleft" unicode="&#x2039;" horiz-adv-x="336" 
d="M111 320l149 -191l-56 -41l-182 232l182 240l56 -41z" />
    <glyph glyph-name="guilsinglright" unicode="&#x203a;" horiz-adv-x="336" 
d="M76 129l149 191l-149 199l56 41l182 -240l-182 -232z" />
    <glyph glyph-name="Euro" unicode="&#x20ac;" 
d="M533 720v-100q-56 60 -157 60q-80 0 -126.5 -50.5t-57.5 -135.5h300l-26 -76h-284q-2 -20 -2 -37q0 -20 2 -40h259l-26 -77h-223q12 -91 59.5 -140.5t125.5 -49.5q96 0 156 60v-101q-21 -19 -65 -33.5t-102 -14.5q-109 0 -177 69.5t-87 209.5h-77l25 77h45q-2 18 -2 40
q0 17 2 37h-70l25 76h51q18 127 83 201.5t182 74.5q55 0 99.5 -15t67.5 -35z" />
    <glyph glyph-name="afii61352" unicode="&#x2116;" horiz-adv-x="1050" 
d="M63 0v790l486 -573v537h94v-785l-486 573v-542h-94zM846 428q68 0 115.5 -43t47.5 -107q0 -63 -47.5 -106t-115.5 -43t-115 43t-47 106q0 64 47 107t115 43zM846 364q-38 0 -64 -25t-26 -61q0 -35 26 -60.5t64 -25.5t64.5 25.5t26.5 60.5t-26.5 60.5t-64.5 25.5zM1009 0
h-325v68h325v-68z" />
    <glyph glyph-name="trademark" unicode="&#x2122;" horiz-adv-x="940" 
d="M906 754v-421h-64v357h-2l-144 -357h-39l-140 357h-2v-357h-64v421h105l121 -297l125 297h104zM374 754v-64h-138v-357h-64v357h-138v64h340z" />
    <glyph glyph-name="radical" unicode="&#x221a;" horiz-adv-x="549" 
d="M10 450l146 72l197 -403l127 798l35 -5l-150 -950l-243 502l-96 -47z" />
    <glyph glyph-name="infinity" unicode="&#x221e;" horiz-adv-x="713" 
d="M486 391q71 31 133 -6.5t69 -105.5q6 -59 -37.5 -109.5t-109.5 -44.5q-29 3 -55.5 12.5t-47.5 23.5t-35 26t-28.5 26.5l-17.5 17.5l-17.5 -17.5t-28.5 -26.5t-35 -26t-47.5 -23.5t-55.5 -12.5q-66 -6 -109.5 44.5t-37.5 109.5q7 68 69 105.5t133 6.5q33 -15 56.5 -32
t72.5 -62q49 45 72.5 62t56.5 32zM205 345q-58 20 -94 -12.5t-35 -73.5q1 -43 37.5 -68.5t78.5 -15.5q27 6 48 18t33.5 23t50.5 48q-80 67 -119 81zM522 175q42 -10 78.5 15.5t37.5 68.5q1 41 -35 73.5t-94 12.5q-39 -14 -119 -81l39 -37.5t26.5 -22t32 -19.5t34.5 -10z" />
    <glyph glyph-name="approxequal" unicode="&#x2248;" horiz-adv-x="549" 
d="M527 370q-28 -48 -80 -67.5t-98 -6.5l-150 43q-20 6 -37 7t-30.5 -3t-24 -8.5t-19.5 -13l-13.5 -13t-10.5 -13t-7 -9.5l-43 27q79 104 195 72l151 -41q37 -9 79 8q32 14 51 42zM527 219q-28 -48 -80 -67.5t-98 -6.5l-150 43q-20 6 -37 7t-30.5 -3t-24 -8.5t-19.5 -13
l-13.5 -13t-10.5 -13t-7 -9.5l-43 27q79 104 195 72l151 -41q37 -9 79 8q32 14 51 42z" />
    <glyph glyph-name="notequal" unicode="&#x2260;" 
d="M545 127h-298l-89 -143l-74 48l59 95h-110v86h164l54 86h-218v86h272l84 135l74 -46l-55 -89h137v-86h-191l-53 -86h244v-86z" />
    <glyph glyph-name="lessequal" unicode="&#x2264;" 
d="M545 651v-94l-384 -148l384 -148v-94l-512 207v70zM33 303l512 -202v-94l-512 207v89z" />
    <glyph glyph-name="greaterequal" unicode="&#x2265;" 
d="M546 374l-512 -207v94l384 148l-384 148v94l512 -207v-70zM546 214l-512 -207v94l512 202v-89z" />
    <glyph glyph-name="nbspace" horiz-adv-x="500" 
 />
    <glyph glyph-name="hyphenminus" horiz-adv-x="332" 
d="M37 308h259v-75h-259v75z" />
    </font>
</defs>
</svg>
